<svg width="336" height="195" viewBox="0 0 336 195" fill="none" xmlns="http://www.w3.org/2000/svg">
<path opacity="0.15" d="M112.436 126.406C112.436 127.467 117.072 128.485 125.323 129.235C133.575 129.985 144.767 130.406 156.436 130.406C168.106 130.406 179.297 129.985 187.549 129.235C195.8 128.485 200.436 127.467 200.436 126.406C200.436 125.345 195.8 124.328 187.549 123.578C179.297 122.828 168.106 122.406 156.436 122.406C144.767 122.406 133.575 122.828 125.323 123.578C117.072 124.328 112.436 125.345 112.436 126.406Z" fill="#260F08"/>
<path d="M223.983 40.2196L176.836 45.9796L181.156 81.3396L225.929 75.8729C226.242 75.8367 226.544 75.7387 226.819 75.5845C227.093 75.4304 227.334 75.2232 227.528 74.975C227.721 74.7269 227.863 74.4427 227.946 74.139C228.029 73.8354 228.05 73.5183 228.009 73.2063L223.983 40.2196Z" fill="#87635A"/>
<path d="M178.562 60.1422L225.708 54.3876L227.143 66.1662L180.002 71.9236L178.562 60.1422Z" fill="#AD8A85"/>
<path d="M189.636 52.7797C189.55 52.1561 189.222 51.5913 188.723 51.2073C188.224 50.8232 187.594 50.6504 186.969 50.7263C186.659 50.7658 186.36 50.8662 186.088 51.0217C185.817 51.1773 185.579 51.385 185.388 51.6328C185.197 51.8806 185.057 52.1637 184.976 52.4658C184.895 52.7678 184.875 53.083 184.916 53.393L185.209 55.7397C185.245 56.6346 184.943 57.5101 184.363 58.193C183.784 58.8758 182.969 59.3162 182.08 59.4268C181.192 59.5375 180.294 59.3104 179.564 58.7905C178.835 58.2707 178.328 57.4959 178.143 56.6197L176.836 45.953L191.316 29.073C210.569 28.3797 225.449 32.673 226.329 39.873L227.609 50.4063C227.632 50.5856 227.612 50.7677 227.553 50.9383C227.493 51.1089 227.395 51.2635 227.266 51.3899C227.137 51.5164 226.981 51.6114 226.809 51.6674C226.637 51.7234 226.455 51.739 226.276 51.713C225.292 51.526 224.394 51.0291 223.712 50.295C223.031 49.5609 222.603 48.6281 222.489 47.633C222.451 47.3231 222.352 47.0238 222.197 46.7522C222.043 46.4806 221.837 46.2421 221.591 46.0502C221.344 45.8582 221.062 45.7168 220.761 45.6337C220.46 45.5507 220.146 45.5278 219.836 45.5663C219.21 45.6441 218.641 45.9674 218.253 46.465C218.061 46.7114 217.92 46.9931 217.837 47.2942C217.754 47.5953 217.731 47.9098 217.769 48.2197L218.063 50.5663C218.101 50.8763 218.078 51.1907 217.995 51.4918C217.912 51.7929 217.771 52.0747 217.579 52.321C217.387 52.5674 217.148 52.7736 216.877 52.9278C216.605 53.082 216.306 53.1812 215.996 53.2197C215.686 53.2582 215.372 53.2353 215.07 53.1523C214.769 53.0693 214.488 52.9278 214.241 52.7359C213.995 52.544 213.789 52.3054 213.635 52.0338C213.48 51.7622 213.381 51.4629 213.343 51.153C213.306 50.8431 213.208 50.5435 213.056 50.2712C212.903 49.9989 212.699 49.7594 212.453 49.5663C212.208 49.3731 211.927 49.2301 211.627 49.1455C211.327 49.0609 211.013 49.0362 210.703 49.073C210.393 49.1098 210.093 49.2072 209.821 49.3598C209.549 49.5124 209.309 49.7171 209.116 49.9622C208.726 50.4573 208.548 51.0871 208.623 51.713L208.916 54.0863C209.068 55.3382 208.717 56.5991 207.939 57.5918C207.161 58.5845 206.021 59.2276 204.769 59.3797C203.517 59.5317 202.256 59.1803 201.264 58.4026C200.271 57.625 199.628 56.4848 199.476 55.233L199.049 51.6863C199.013 51.3746 198.915 51.0733 198.761 50.8002C198.606 50.527 198.398 50.2877 198.15 50.0962C197.901 49.9048 197.617 49.7652 197.313 49.6856C197.01 49.606 196.693 49.5882 196.383 49.633C195.754 49.713 195.183 50.0382 194.793 50.5377C194.403 51.0373 194.227 51.6706 194.303 52.2997L194.463 53.473C194.54 54.0989 194.366 54.7301 193.979 55.2277C193.591 55.7253 193.022 56.0486 192.396 56.1263C191.77 56.2041 191.139 56.0301 190.641 55.6425C190.144 55.255 189.82 54.6856 189.743 54.0597L189.636 52.7797Z" fill="#CAAFA7"/>
<path d="M185.076 44.9663L219.263 40.8063" stroke="white" stroke-width="0.973958" stroke-linecap="round" stroke-linejoin="round"/>
<path d="M111.449 67.793C110.489 76.273 128.196 85.233 150.916 87.7396C173.636 90.2463 192.996 85.5796 193.956 77.073L190.009 112.566C189.049 121.046 169.769 125.9 146.969 123.233C124.169 120.566 106.463 111.74 107.423 103.18L111.449 67.793Z" fill="#87635A"/>
<path d="M109.823 81.953C108.863 90.4063 126.569 99.393 149.396 101.98C172.223 104.566 191.449 99.793 192.409 91.313L191.076 103.1C190.116 111.58 170.836 116.433 148.036 113.766C125.236 111.1 107.529 102.22 108.489 93.7397L109.823 81.953Z" fill="#AD8A85"/>
<path d="M164.836 58.7796C161.529 58.1129 158.063 57.5529 154.489 57.1529C130.489 54.4862 110.036 59.0462 109.156 67.5262L107.023 86.4062C106.97 86.8702 107.009 87.3401 107.138 87.7888C107.267 88.2376 107.484 88.6566 107.775 89.0218C108.362 89.7595 109.219 90.2335 110.156 90.3396C111.093 90.4457 112.034 90.1751 112.772 89.5875C113.509 88.9999 113.983 88.1433 114.089 87.2062C114.12 86.7234 114.249 86.2519 114.467 85.8203C114.686 85.3887 114.99 85.0059 115.361 84.6952C115.732 84.3846 116.162 84.1524 116.625 84.0129C117.088 83.8734 117.575 83.8295 118.056 83.8837C118.536 83.9379 119.001 84.0892 119.422 84.3284C119.842 84.5675 120.21 84.8896 120.502 85.2751C120.795 85.6606 121.006 86.1014 121.123 86.5709C121.24 87.0403 121.26 87.5287 121.183 88.0062L120.383 95.0996C120.206 96.6626 120.657 98.2318 121.637 99.462C122.617 100.692 124.046 101.483 125.609 101.66C127.172 101.836 128.741 101.385 129.972 100.405C131.202 99.4247 131.992 97.9959 132.169 96.4329C132.275 95.4958 132.749 94.6392 133.487 94.0516C134.225 93.464 135.165 93.1935 136.103 93.2996C137.04 93.4057 137.896 93.8797 138.484 94.6173C139.071 95.355 139.342 96.2958 139.236 97.2329L138.969 99.5796C138.898 100.501 139.186 101.414 139.773 102.127C140.36 102.84 141.201 103.298 142.118 103.405C143.036 103.512 143.959 103.26 144.695 102.7C145.43 102.141 145.92 101.319 146.063 100.406L146.196 99.2062C146.376 97.6432 147.17 96.2159 148.403 95.2382C149.636 94.2605 151.206 93.8126 152.769 93.9929C154.332 94.1733 155.76 94.9671 156.737 96.1999C157.715 97.4326 158.163 99.0032 157.983 100.566L157.583 104.086C157.511 105.007 157.799 105.92 158.386 106.634C158.973 107.347 159.814 107.805 160.732 107.912C161.649 108.019 162.573 107.766 163.308 107.207C164.043 106.648 164.534 105.826 164.676 104.913L165.609 96.6462C165.673 96.3587 165.843 96.1057 166.086 95.9377C166.328 95.7698 166.624 95.699 166.916 95.7396C167.072 95.7525 167.223 95.7972 167.361 95.8709C167.499 95.9447 167.621 96.0458 167.718 96.1682C167.816 96.2906 167.887 96.4317 167.928 96.5827C167.969 96.7337 167.978 96.8914 167.956 97.0462C167.827 98.5882 168.304 100.12 169.286 101.315C170.268 102.511 171.677 103.277 173.215 103.451C174.753 103.624 176.297 103.192 177.521 102.245C178.745 101.298 179.551 99.9115 179.769 98.3796L180.303 93.6596C180.409 92.7225 180.883 91.8659 181.62 91.2783C182.358 90.6907 183.299 90.4202 184.236 90.5262C185.173 90.6323 186.03 91.1063 186.617 91.844C187.205 92.5816 187.475 93.5225 187.369 94.4596C187.298 95.3806 187.586 96.2936 188.173 97.0068C188.76 97.7201 189.601 98.1783 190.518 98.2852C191.436 98.3922 192.359 98.1396 193.095 97.5804C193.83 97.0213 194.32 96.1991 194.463 95.2862L196.249 79.7396C196.29 79.4275 196.269 79.1105 196.186 78.8068C196.103 78.5031 195.961 78.219 195.767 77.9708C195.574 77.7226 195.333 77.5155 195.059 77.3613C194.784 77.2072 194.482 77.1091 194.169 77.0729L148.143 71.7396L164.836 58.7796Z" fill="#CAAFA7"/>
<path d="M163.156 73.6597L164.836 58.7797L148.009 71.953L163.156 73.6597Z" fill="#87635A"/>
<path d="M113.796 68.0596C113.129 73.9262 130.036 80.6462 151.529 83.0996C166.303 84.7796 179.396 84.0062 186.383 81.4462" stroke="white" stroke-width="0.973958" stroke-linecap="round" stroke-linejoin="round"/>
<path d="M62.1977 174V170.136L58.3057 164.2H60.2517L63.0797 168.68L65.9357 164.2H67.7697L63.8777 170.136V174H62.1977ZM70.4194 174.126C69.7567 174.126 69.1547 173.967 68.6134 173.65C68.0814 173.333 67.6614 172.903 67.3534 172.362C67.0454 171.811 66.8914 171.191 66.8914 170.5C66.8914 169.809 67.0454 169.193 67.3534 168.652C67.6614 168.101 68.0814 167.667 68.6134 167.35C69.1454 167.033 69.7474 166.874 70.4194 166.874C71.0914 166.874 71.6887 167.033 72.2114 167.35C72.7434 167.667 73.1634 168.101 73.4714 168.652C73.7794 169.193 73.9334 169.809 73.9334 170.5C73.9334 171.191 73.7794 171.811 73.4714 172.362C73.1634 172.903 72.7434 173.333 72.2114 173.65C71.6887 173.967 71.0914 174.126 70.4194 174.126ZM70.4194 172.782C70.8021 172.782 71.1381 172.684 71.4274 172.488C71.7261 172.292 71.9594 172.021 72.1274 171.676C72.2954 171.321 72.3794 170.929 72.3794 170.5C72.3794 170.061 72.2954 169.674 72.1274 169.338C71.9594 168.993 71.7261 168.722 71.4274 168.526C71.1381 168.321 70.8021 168.218 70.4194 168.218C70.0367 168.218 69.6961 168.321 69.3974 168.526C69.0987 168.722 68.8654 168.993 68.6974 169.338C68.5294 169.674 68.4454 170.061 68.4454 170.5C68.4454 170.939 68.5294 171.331 68.6974 171.676C68.8654 172.021 69.0987 172.292 69.3974 172.488C69.6961 172.684 70.0367 172.782 70.4194 172.782ZM77.9609 174.112C77.4756 174.112 77.0509 174.005 76.6869 173.79C76.3229 173.575 76.0336 173.281 75.8189 172.908C75.6136 172.535 75.5109 172.101 75.5109 171.606V166.986H77.1069V171.144C77.1069 171.657 77.2422 172.068 77.5129 172.376C77.7929 172.684 78.1709 172.838 78.6469 172.838C78.9642 172.838 79.2489 172.768 79.5009 172.628C79.7622 172.488 79.9862 172.278 80.1729 171.998V166.986H81.7549V174H80.1729V172.866C79.9022 173.277 79.5802 173.589 79.2069 173.804C78.8336 174.009 78.4182 174.112 77.9609 174.112ZM83.7154 174V166.986H85.2974V168.498C85.5027 167.966 85.7687 167.56 86.0954 167.28C86.422 167 86.8 166.86 87.2294 166.86C87.3694 166.869 87.4907 166.883 87.5934 166.902C87.696 166.911 87.8034 166.944 87.9154 167V168.386C87.794 168.33 87.654 168.288 87.4954 168.26C87.346 168.232 87.1967 168.218 87.0474 168.218C86.6647 168.218 86.3194 168.321 86.0114 168.526C85.7127 168.731 85.4747 169.016 85.2974 169.38V174H83.7154ZM94.484 174.126C93.9986 174.126 93.5646 174.037 93.182 173.86C92.8086 173.673 92.5146 173.421 92.3 173.104C92.0946 172.777 91.992 172.404 91.992 171.984C91.992 171.564 92.0993 171.2 92.314 170.892C92.538 170.584 92.8506 170.346 93.252 170.178C93.6533 170.01 94.1293 169.926 94.68 169.926C95.0066 169.926 95.3286 169.963 95.646 170.038C95.9633 170.103 96.2713 170.215 96.57 170.374V169.59C96.57 169.123 96.4346 168.773 96.164 168.54C95.9026 168.307 95.5013 168.19 94.96 168.19C94.6706 168.19 94.358 168.237 94.022 168.33C93.6953 168.414 93.3266 168.549 92.916 168.736L92.356 167.588C93.3826 167.112 94.3533 166.874 95.268 166.874C96.1826 166.874 96.8873 167.098 97.382 167.546C97.886 167.985 98.138 168.61 98.138 169.422V174H96.57V173.272C96.2713 173.561 95.9493 173.776 95.604 173.916C95.2586 174.056 94.8853 174.126 94.484 174.126ZM93.476 171.956C93.476 172.283 93.6066 172.539 93.868 172.726C94.1293 172.913 94.4793 173.006 94.918 173.006C95.2353 173.006 95.5293 172.959 95.8 172.866C96.08 172.763 96.3366 172.614 96.57 172.418V171.284C96.3273 171.172 96.0753 171.088 95.814 171.032C95.5526 170.976 95.268 170.948 94.96 170.948C94.5026 170.948 94.1386 171.037 93.868 171.214C93.6066 171.391 93.476 171.639 93.476 171.956ZM102.895 174.07C102.307 174.07 101.775 173.911 101.299 173.594C100.823 173.267 100.441 172.838 100.151 172.306C99.8712 171.765 99.7312 171.163 99.7312 170.5C99.7312 169.828 99.8759 169.226 100.165 168.694C100.455 168.153 100.847 167.723 101.341 167.406C101.845 167.089 102.401 166.93 103.007 166.93C103.409 166.93 103.782 167.009 104.127 167.168C104.482 167.317 104.79 167.541 105.051 167.84V163.962L106.633 163.682V174H105.065V173.076C104.813 173.393 104.501 173.641 104.127 173.818C103.754 173.986 103.343 174.07 102.895 174.07ZM103.385 172.726C103.721 172.726 104.034 172.661 104.323 172.53C104.613 172.399 104.855 172.213 105.051 171.97V169.016C104.846 168.773 104.599 168.587 104.309 168.456C104.02 168.325 103.712 168.26 103.385 168.26C102.984 168.26 102.625 168.358 102.307 168.554C101.999 168.741 101.752 169.002 101.565 169.338C101.388 169.674 101.299 170.061 101.299 170.5C101.299 170.92 101.388 171.303 101.565 171.648C101.752 171.984 101.999 172.25 102.307 172.446C102.625 172.633 102.984 172.726 103.385 172.726ZM111.44 174.07C110.852 174.07 110.32 173.911 109.844 173.594C109.368 173.267 108.985 172.838 108.696 172.306C108.416 171.765 108.276 171.163 108.276 170.5C108.276 169.828 108.421 169.226 108.71 168.694C108.999 168.153 109.391 167.723 109.886 167.406C110.39 167.089 110.945 166.93 111.552 166.93C111.953 166.93 112.327 167.009 112.672 167.168C113.027 167.317 113.335 167.541 113.596 167.84V163.962L115.178 163.682V174H113.61V173.076C113.358 173.393 113.045 173.641 112.672 173.818C112.299 173.986 111.888 174.07 111.44 174.07ZM111.93 172.726C112.266 172.726 112.579 172.661 112.868 172.53C113.157 172.399 113.4 172.213 113.596 171.97V169.016C113.391 168.773 113.143 168.587 112.854 168.456C112.565 168.325 112.257 168.26 111.93 168.26C111.529 168.26 111.169 168.358 110.852 168.554C110.544 168.741 110.297 169.002 110.11 169.338C109.933 169.674 109.844 170.061 109.844 170.5C109.844 170.92 109.933 171.303 110.11 171.648C110.297 171.984 110.544 172.25 110.852 172.446C111.169 172.633 111.529 172.726 111.93 172.726ZM120.405 174.14C119.733 174.14 119.126 173.981 118.585 173.664C118.044 173.337 117.614 172.903 117.297 172.362C116.98 171.811 116.821 171.191 116.821 170.5C116.821 169.809 116.97 169.193 117.269 168.652C117.568 168.111 117.974 167.681 118.487 167.364C119.01 167.037 119.588 166.874 120.223 166.874C120.876 166.874 121.45 167.033 121.945 167.35C122.449 167.667 122.841 168.097 123.121 168.638C123.41 169.179 123.555 169.8 123.555 170.5V170.878H118.375C118.431 171.261 118.552 171.601 118.739 171.9C118.935 172.189 119.182 172.418 119.481 172.586C119.789 172.754 120.12 172.838 120.475 172.838C120.802 172.838 121.11 172.782 121.399 172.67C121.698 172.549 121.945 172.385 122.141 172.18L123.177 173.118C122.748 173.473 122.309 173.734 121.861 173.902C121.422 174.061 120.937 174.14 120.405 174.14ZM118.389 169.898H122.057C122.001 169.562 121.884 169.263 121.707 169.002C121.539 168.741 121.324 168.535 121.063 168.386C120.811 168.237 120.531 168.162 120.223 168.162C119.915 168.162 119.63 168.237 119.369 168.386C119.117 168.526 118.907 168.727 118.739 168.988C118.571 169.249 118.454 169.553 118.389 169.898ZM128.038 174.07C127.45 174.07 126.918 173.911 126.442 173.594C125.966 173.267 125.583 172.838 125.294 172.306C125.014 171.765 124.874 171.163 124.874 170.5C124.874 169.828 125.018 169.226 125.308 168.694C125.597 168.153 125.989 167.723 126.484 167.406C126.988 167.089 127.543 166.93 128.15 166.93C128.551 166.93 128.924 167.009 129.27 167.168C129.624 167.317 129.932 167.541 130.194 167.84V163.962L131.776 163.682V174H130.208V173.076C129.956 173.393 129.643 173.641 129.27 173.818C128.896 173.986 128.486 174.07 128.038 174.07ZM128.528 172.726C128.864 172.726 129.176 172.661 129.466 172.53C129.755 172.399 129.998 172.213 130.194 171.97V169.016C129.988 168.773 129.741 168.587 129.452 168.456C129.162 168.325 128.854 168.26 128.528 168.26C128.126 168.26 127.767 168.358 127.45 168.554C127.142 168.741 126.894 169.002 126.708 169.338C126.53 169.674 126.442 170.061 126.442 170.5C126.442 170.92 126.53 171.303 126.708 171.648C126.894 171.984 127.142 172.25 127.45 172.446C127.767 172.633 128.126 172.726 128.528 172.726ZM136.871 174V166.986H138.453V174H136.871ZM137.669 165.558C137.399 165.558 137.165 165.465 136.969 165.278C136.783 165.082 136.689 164.853 136.689 164.592C136.689 164.321 136.783 164.093 136.969 163.906C137.165 163.71 137.399 163.612 137.669 163.612C137.94 163.612 138.169 163.71 138.355 163.906C138.551 164.093 138.649 164.317 138.649 164.578C138.649 164.849 138.551 165.082 138.355 165.278C138.169 165.465 137.94 165.558 137.669 165.558ZM143.437 174.14C142.727 174.14 142.191 173.977 141.827 173.65C141.463 173.314 141.281 172.824 141.281 172.18V168.246H139.881V166.986H141.281V165.054L142.863 164.718V166.986H144.823V168.246H142.863V171.83C142.863 172.175 142.937 172.423 143.087 172.572C143.245 172.712 143.497 172.782 143.843 172.782C144.001 172.782 144.146 172.773 144.277 172.754C144.417 172.726 144.589 172.679 144.795 172.614V173.944C144.599 174.009 144.375 174.056 144.123 174.084C143.88 174.121 143.651 174.14 143.437 174.14ZM149.362 174.14C148.69 174.14 148.083 173.981 147.542 173.664C147.001 173.337 146.571 172.903 146.254 172.362C145.937 171.811 145.778 171.191 145.778 170.5C145.778 169.809 145.927 169.193 146.226 168.652C146.525 168.111 146.931 167.681 147.444 167.364C147.967 167.037 148.545 166.874 149.18 166.874C149.833 166.874 150.407 167.033 150.902 167.35C151.406 167.667 151.798 168.097 152.078 168.638C152.367 169.179 152.512 169.8 152.512 170.5V170.878H147.332C147.388 171.261 147.509 171.601 147.696 171.9C147.892 172.189 148.139 172.418 148.438 172.586C148.746 172.754 149.077 172.838 149.432 172.838C149.759 172.838 150.067 172.782 150.356 172.67C150.655 172.549 150.902 172.385 151.098 172.18L152.134 173.118C151.705 173.473 151.266 173.734 150.818 173.902C150.379 174.061 149.894 174.14 149.362 174.14ZM147.346 169.898H151.014C150.958 169.562 150.841 169.263 150.664 169.002C150.496 168.741 150.281 168.535 150.02 168.386C149.768 168.237 149.488 168.162 149.18 168.162C148.872 168.162 148.587 168.237 148.326 168.386C148.074 168.526 147.864 168.727 147.696 168.988C147.528 169.249 147.411 169.553 147.346 169.898ZM154.126 174V166.986H155.708V168.092C155.969 167.691 156.272 167.387 156.618 167.182C156.972 166.977 157.364 166.874 157.794 166.874C158.27 166.874 158.685 166.995 159.04 167.238C159.404 167.481 159.674 167.807 159.852 168.218C160.132 167.779 160.463 167.448 160.846 167.224C161.238 166.991 161.681 166.874 162.176 166.874C162.633 166.874 163.034 166.981 163.38 167.196C163.725 167.411 163.991 167.709 164.178 168.092C164.374 168.475 164.472 168.913 164.472 169.408V174H162.89V169.758C162.89 169.263 162.764 168.871 162.512 168.582C162.26 168.293 161.914 168.148 161.476 168.148C161.196 168.148 160.934 168.218 160.692 168.358C160.458 168.498 160.253 168.708 160.076 168.988C160.085 169.053 160.09 169.123 160.09 169.198C160.099 169.263 160.104 169.333 160.104 169.408V174H158.508V169.758C158.508 169.263 158.382 168.871 158.13 168.582C157.878 168.293 157.532 168.148 157.094 168.148C156.524 168.148 156.062 168.419 155.708 168.96V174H154.126ZM168.769 174.14C168.172 174.14 167.612 174.061 167.089 173.902C166.576 173.734 166.133 173.496 165.759 173.188L166.501 172.138C166.968 172.427 167.369 172.633 167.705 172.754C168.051 172.875 168.401 172.936 168.755 172.936C169.175 172.936 169.516 172.847 169.777 172.67C170.039 172.493 170.169 172.264 170.169 171.984C170.169 171.769 170.09 171.601 169.931 171.48C169.782 171.349 169.535 171.251 169.189 171.186L167.957 170.976C167.276 170.845 166.767 170.621 166.431 170.304C166.095 169.987 165.927 169.567 165.927 169.044C165.927 168.605 166.039 168.227 166.263 167.91C166.497 167.583 166.814 167.331 167.215 167.154C167.626 166.967 168.102 166.874 168.643 166.874C169.129 166.874 169.6 166.944 170.057 167.084C170.515 167.224 170.963 167.434 171.401 167.714L170.659 168.764C170.305 168.531 169.95 168.363 169.595 168.26C169.25 168.148 168.9 168.092 168.545 168.092C168.181 168.092 167.887 168.167 167.663 168.316C167.449 168.456 167.341 168.652 167.341 168.904C167.341 169.128 167.411 169.301 167.551 169.422C167.701 169.534 167.957 169.618 168.321 169.674L169.567 169.912C170.267 170.033 170.785 170.257 171.121 170.584C171.467 170.901 171.639 171.326 171.639 171.858C171.639 172.287 171.513 172.675 171.261 173.02C171.009 173.365 170.669 173.641 170.239 173.846C169.81 174.042 169.32 174.14 168.769 174.14ZM177.465 174L175.575 166.986H177.087L178.319 171.928L179.775 166.986H181.105L182.547 171.928L183.779 166.986H185.249L183.359 174H181.847L180.419 169.058L179.005 174H177.465ZM186.541 174V166.986H188.123V174H186.541ZM187.339 165.558C187.069 165.558 186.835 165.465 186.639 165.278C186.453 165.082 186.359 164.853 186.359 164.592C186.359 164.321 186.453 164.093 186.639 163.906C186.835 163.71 187.069 163.612 187.339 163.612C187.61 163.612 187.839 163.71 188.025 163.906C188.221 164.093 188.319 164.317 188.319 164.578C188.319 164.849 188.221 165.082 188.025 165.278C187.839 165.465 187.61 165.558 187.339 165.558ZM190.083 174V163.962L191.665 163.682V174H190.083ZM193.61 174V163.962L195.192 163.682V174H193.61ZM202.41 174.126C201.924 174.126 201.49 174.037 201.108 173.86C200.734 173.673 200.44 173.421 200.226 173.104C200.02 172.777 199.918 172.404 199.918 171.984C199.918 171.564 200.025 171.2 200.24 170.892C200.464 170.584 200.776 170.346 201.178 170.178C201.579 170.01 202.055 169.926 202.606 169.926C202.932 169.926 203.254 169.963 203.572 170.038C203.889 170.103 204.197 170.215 204.496 170.374V169.59C204.496 169.123 204.36 168.773 204.09 168.54C203.828 168.307 203.427 168.19 202.886 168.19C202.596 168.19 202.284 168.237 201.948 168.33C201.621 168.414 201.252 168.549 200.842 168.736L200.282 167.588C201.308 167.112 202.279 166.874 203.194 166.874C204.108 166.874 204.813 167.098 205.308 167.546C205.812 167.985 206.064 168.61 206.064 169.422V174H204.496V173.272C204.197 173.561 203.875 173.776 203.53 173.916C203.184 174.056 202.811 174.126 202.41 174.126ZM201.402 171.956C201.402 172.283 201.532 172.539 201.794 172.726C202.055 172.913 202.405 173.006 202.844 173.006C203.161 173.006 203.455 172.959 203.726 172.866C204.006 172.763 204.262 172.614 204.496 172.418V171.284C204.253 171.172 204.001 171.088 203.74 171.032C203.478 170.976 203.194 170.948 202.886 170.948C202.428 170.948 202.064 171.037 201.794 171.214C201.532 171.391 201.402 171.639 201.402 171.956ZM207.979 176.926V166.986H209.533V167.98C209.794 167.644 210.112 167.387 210.485 167.21C210.868 167.023 211.278 166.93 211.717 166.93C212.314 166.93 212.851 167.089 213.327 167.406C213.803 167.723 214.181 168.153 214.461 168.694C214.75 169.235 214.895 169.837 214.895 170.5C214.895 171.163 214.746 171.765 214.447 172.306C214.158 172.847 213.766 173.277 213.271 173.594C212.776 173.911 212.226 174.07 211.619 174.07C211.199 174.07 210.816 173.995 210.471 173.846C210.126 173.687 209.822 173.463 209.561 173.174V176.926H207.979ZM211.241 172.74C211.642 172.74 211.997 172.647 212.305 172.46C212.622 172.264 212.87 171.998 213.047 171.662C213.234 171.317 213.327 170.929 213.327 170.5C213.327 170.071 213.234 169.688 213.047 169.352C212.87 169.016 212.622 168.75 212.305 168.554C211.997 168.358 211.642 168.26 211.241 168.26C210.896 168.26 210.578 168.33 210.289 168.47C210.009 168.601 209.766 168.792 209.561 169.044V171.97C209.766 172.213 210.014 172.404 210.303 172.544C210.592 172.675 210.905 172.74 211.241 172.74ZM216.538 176.926V166.986H218.092V167.98C218.353 167.644 218.67 167.387 219.044 167.21C219.426 167.023 219.837 166.93 220.276 166.93C220.873 166.93 221.41 167.089 221.886 167.406C222.362 167.723 222.74 168.153 223.02 168.694C223.309 169.235 223.454 169.837 223.454 170.5C223.454 171.163 223.304 171.765 223.006 172.306C222.716 172.847 222.324 173.277 221.83 173.594C221.335 173.911 220.784 174.07 220.178 174.07C219.758 174.07 219.375 173.995 219.03 173.846C218.684 173.687 218.381 173.463 218.12 173.174V176.926H216.538ZM219.8 172.74C220.201 172.74 220.556 172.647 220.864 172.46C221.181 172.264 221.428 171.998 221.606 171.662C221.792 171.317 221.886 170.929 221.886 170.5C221.886 170.071 221.792 169.688 221.606 169.352C221.428 169.016 221.181 168.75 220.864 168.554C220.556 168.358 220.201 168.26 219.8 168.26C219.454 168.26 219.137 168.33 218.848 168.47C218.568 168.601 218.325 168.792 218.12 169.044V171.97C218.325 172.213 218.572 172.404 218.862 172.544C219.151 172.675 219.464 172.74 219.8 172.74ZM228.358 174.14C227.686 174.14 227.08 173.981 226.538 173.664C225.997 173.337 225.568 172.903 225.25 172.362C224.933 171.811 224.774 171.191 224.774 170.5C224.774 169.809 224.924 169.193 225.222 168.652C225.521 168.111 225.927 167.681 226.44 167.364C226.963 167.037 227.542 166.874 228.176 166.874C228.83 166.874 229.404 167.033 229.898 167.35C230.402 167.667 230.794 168.097 231.074 168.638C231.364 169.179 231.508 169.8 231.508 170.5V170.878H226.328C226.384 171.261 226.506 171.601 226.692 171.9C226.888 172.189 227.136 172.418 227.434 172.586C227.742 172.754 228.074 172.838 228.428 172.838C228.755 172.838 229.063 172.782 229.352 172.67C229.651 172.549 229.898 172.385 230.094 172.18L231.13 173.118C230.701 173.473 230.262 173.734 229.814 173.902C229.376 174.061 228.89 174.14 228.358 174.14ZM226.342 169.898H230.01C229.954 169.562 229.838 169.263 229.66 169.002C229.492 168.741 229.278 168.535 229.016 168.386C228.764 168.237 228.484 168.162 228.176 168.162C227.868 168.162 227.584 168.237 227.322 168.386C227.07 168.526 226.86 168.727 226.692 168.988C226.524 169.249 226.408 169.553 226.342 169.898ZM235.181 174.126C234.696 174.126 234.262 174.037 233.879 173.86C233.506 173.673 233.212 173.421 232.997 173.104C232.792 172.777 232.689 172.404 232.689 171.984C232.689 171.564 232.797 171.2 233.011 170.892C233.235 170.584 233.548 170.346 233.949 170.178C234.351 170.01 234.827 169.926 235.377 169.926C235.704 169.926 236.026 169.963 236.343 170.038C236.661 170.103 236.969 170.215 237.267 170.374V169.59C237.267 169.123 237.132 168.773 236.861 168.54C236.6 168.307 236.199 168.19 235.657 168.19C235.368 168.19 235.055 168.237 234.719 168.33C234.393 168.414 234.024 168.549 233.613 168.736L233.053 167.588C234.08 167.112 235.051 166.874 235.965 166.874C236.88 166.874 237.585 167.098 238.079 167.546C238.583 167.985 238.835 168.61 238.835 169.422V174H237.267V173.272C236.969 173.561 236.647 173.776 236.301 173.916C235.956 174.056 235.583 174.126 235.181 174.126ZM234.173 171.956C234.173 172.283 234.304 172.539 234.565 172.726C234.827 172.913 235.177 173.006 235.615 173.006C235.933 173.006 236.227 172.959 236.497 172.866C236.777 172.763 237.034 172.614 237.267 172.418V171.284C237.025 171.172 236.773 171.088 236.511 171.032C236.25 170.976 235.965 170.948 235.657 170.948C235.2 170.948 234.836 171.037 234.565 171.214C234.304 171.391 234.173 171.639 234.173 171.956ZM240.751 174V166.986H242.333V168.498C242.538 167.966 242.804 167.56 243.131 167.28C243.457 167 243.835 166.86 244.265 166.86C244.405 166.869 244.526 166.883 244.629 166.902C244.731 166.911 244.839 166.944 244.951 167V168.386C244.829 168.33 244.689 168.288 244.531 168.26C244.381 168.232 244.232 168.218 244.083 168.218C243.7 168.218 243.355 168.321 243.047 168.526C242.748 168.731 242.51 169.016 242.333 169.38V174H240.751ZM249.391 174V163.962L250.973 163.682V168.134C251.244 167.714 251.566 167.401 251.939 167.196C252.312 166.981 252.732 166.874 253.199 166.874C253.675 166.874 254.095 166.981 254.459 167.196C254.823 167.401 255.108 167.691 255.313 168.064C255.528 168.437 255.635 168.876 255.635 169.38V174H254.039V169.828C254.039 169.315 253.899 168.909 253.619 168.61C253.339 168.302 252.966 168.148 252.499 168.148C252.182 168.148 251.892 168.223 251.631 168.372C251.379 168.512 251.16 168.722 250.973 169.002V174H249.391ZM260.802 174.14C260.13 174.14 259.523 173.981 258.982 173.664C258.44 173.337 258.011 172.903 257.694 172.362C257.376 171.811 257.218 171.191 257.218 170.5C257.218 169.809 257.367 169.193 257.666 168.652C257.964 168.111 258.37 167.681 258.884 167.364C259.406 167.037 259.985 166.874 260.62 166.874C261.273 166.874 261.847 167.033 262.342 167.35C262.846 167.667 263.238 168.097 263.518 168.638C263.807 169.179 263.952 169.8 263.952 170.5V170.878H258.772C258.828 171.261 258.949 171.601 259.136 171.9C259.332 172.189 259.579 172.418 259.878 172.586C260.186 172.754 260.517 172.838 260.872 172.838C261.198 172.838 261.506 172.782 261.796 172.67C262.094 172.549 262.342 172.385 262.538 172.18L263.574 173.118C263.144 173.473 262.706 173.734 262.258 173.902C261.819 174.061 261.334 174.14 260.802 174.14ZM258.786 169.898H262.454C262.398 169.562 262.281 169.263 262.104 169.002C261.936 168.741 261.721 168.535 261.46 168.386C261.208 168.237 260.928 168.162 260.62 168.162C260.312 168.162 260.027 168.237 259.766 168.386C259.514 168.526 259.304 168.727 259.136 168.988C258.968 169.249 258.851 169.553 258.786 169.898ZM265.565 174V166.986H267.147V168.498C267.352 167.966 267.618 167.56 267.945 167.28C268.272 167 268.65 166.86 269.079 166.86C269.219 166.869 269.34 166.883 269.443 166.902C269.546 166.911 269.653 166.944 269.765 167V168.386C269.644 168.33 269.504 168.288 269.345 168.26C269.196 168.232 269.046 168.218 268.897 168.218C268.514 168.218 268.169 168.321 267.861 168.526C267.562 168.731 267.324 169.016 267.147 169.38V174H265.565ZM273.995 174.14C273.323 174.14 272.716 173.981 272.175 173.664C271.634 173.337 271.204 172.903 270.887 172.362C270.57 171.811 270.411 171.191 270.411 170.5C270.411 169.809 270.56 169.193 270.859 168.652C271.158 168.111 271.564 167.681 272.077 167.364C272.6 167.037 273.178 166.874 273.813 166.874C274.466 166.874 275.04 167.033 275.535 167.35C276.039 167.667 276.431 168.097 276.711 168.638C277 169.179 277.145 169.8 277.145 170.5V170.878H271.965C272.021 171.261 272.142 171.601 272.329 171.9C272.525 172.189 272.772 172.418 273.071 172.586C273.379 172.754 273.71 172.838 274.065 172.838C274.392 172.838 274.7 172.782 274.989 172.67C275.288 172.549 275.535 172.385 275.731 172.18L276.767 173.118C276.338 173.473 275.899 173.734 275.451 173.902C275.012 174.061 274.527 174.14 273.995 174.14ZM271.979 169.898H275.647C275.591 169.562 275.474 169.263 275.297 169.002C275.129 168.741 274.914 168.535 274.653 168.386C274.401 168.237 274.121 168.162 273.813 168.162C273.505 168.162 273.22 168.237 272.959 168.386C272.707 168.526 272.497 168.727 272.329 168.988C272.161 169.249 272.044 169.553 271.979 169.898Z" fill="#87635A"/>
</svg>
